{"title":"INNA - Cola Song ft J Balvin 720p x264 AAC [GWC].mp4","uid":9960130,"size":57293937,"categoryP":"video","categoryS":"music_videos","magnet":"?xt=urn:btih:37ab01d7d5b8da608f8c0a7c667b1061f4688887&amp;dn=INNA+-+Cola+Song+ft+J+Balvin+720p+x264+AAC+%5BGWC%5D.mp4&amp;tr=udp%3A%2F%2Ftracker.openbittorrent.com%3A80&amp;tr=udp%3A%2F%2Fopen.demonii.com%3A1337&amp;tr=udp%3A%2F%2Ftracker.coppersurfer.tk%3A6969&amp;tr=udp%3A%2F%2Fexodus.desync.com%3A6969","seeders":9,"leechers":0,"uploader":"canc232","files":1,"time":1397513020,"description":"INNA - Cola Song ft J Balvin 720p x264 AAC [GWC]\n\n\nCOVER : &lt;a href=&quot;\nhttp://i.imgur.com/Aw0DQew.jpg&quot; rel=&quot;nofollow&quot; target=&quot;_NEW&quot;&gt;\nhttp://i.imgur.com/Aw0DQew.jpg&lt;/a&gt;\n\n\nTHUMBNAIL IMAGE : &lt;a href=&quot;\nhttp://img829.imageshack.us/img829/9156/c9rf.jpg&quot; rel=&quot;nofollow&quot; target=&quot;_NEW&quot;&gt;\nhttp://img829.imageshack.us/img829/9156/c9rf.jpg&lt;/a&gt;\n\n\nMEDIA INFO :\nGeneral \nFormat : MPEG-4 \nFormat profile : Base Media \nFile size : 54.6 MiB \nDuration : 3mn 20s \nOverall bit rate mode : Variable \nOverall bit rate : 2 288 Kbps \n\nVideo \nFormat : AVC \nFormat profile : &lt;a class=&quot;__cf_email__&quot; href=&quot;/cdn-cgi/l/email-protection&quot; data-cfemail=&quot;367e5f515e767a051807&quot;&gt;[email&amp;#160;protected]&lt;/a&gt;&lt;script cf-hash='f9e31' type=&quot;text/javascript&quot;&gt;\n/* &lt;![CDATA[ */!function(){try{var t=&quot;currentScript&quot;in document?document.currentScript:function(){for(var t=document.getElementsByTagName(&quot;script&quot;),e=t.length;e--;)if(t[e].getAttribute(&quot;cf-hash&quot;))return t[e]}();if(t&amp;&amp;t.previousSibling){var e,r,n,i,c=t.previousSibling,a=c.getAttribute(&quot;data-cfemail&quot;);if(a){for(e=&quot;&quot;,r=parseInt(a.substr(0,2),16),n=2;a.length-n;n+=2)i=parseInt(a.substr(n,2),16)^r,e+=String.fromCharCode(i);e=document.createTextNode(e),c.parentNode.replaceChild(e,c)}}}catch(u){}}();/* ]]&gt; */&lt;/script&gt; \nFormat settings, CABAC : Yes \nDuration : 3mn 20s \nBit rate : 2 202 Kbps \nMaximum bit rate : 5 072 Kbps \nWidth : 1 280 pixels \nHeight : 720 pixels \nFrame rate mode : Constant \nFrame rate : 23.976 fps \nStream size : 52.6 MiB (96%) \nTitle : INNA - Cola Song ft J Balvin 720p x264 AAC [GWC] \n\nAudio \nFormat : AAC \nFormat profile : LC \nDuration : 3mn 20s \nBit rate mode : Variable \nChannel(s) : 2 channels \nSampling rate : 48.0 KHz \nStream size : 2.01 MiB (4%) \nLanguage : English \n\n","torrent":{"xt":"urn:btih:37ab01d7d5b8da608f8c0a7c667b1061f4688887","amp;dn":"INNA+-+Cola+Song+ft+J+Balvin+720p+x264+AAC+%5BGWC%5D.mp4","amp;tr":["udp%3A%2F%2Ftracker.openbittorrent.com%3A80","udp%3A%2F%2Fopen.demonii.com%3A1337","udp%3A%2F%2Ftracker.coppersurfer.tk%3A6969","udp%3A%2F%2Fexodus.desync.com%3A6969"],"infoHash":"37ab01d7d5b8da608f8c0a7c667b1061f4688887","infoHashBuffer":{"type":"Buffer","data":[55,171,1,215,213,184,218,96,143,140,10,124,102,123,16,97,244,104,136,135]},"announce":[],"urlList":[]}}